<svg width="100" height="100" viewBox="0 0 100 100" fill="none" xmlns="http://www.w3.org/2000/svg">
<path d="M58.3333 37.5C58.3333 39.7102 57.4553 41.8298 55.8925 43.3926C54.3297 44.9554 52.2101 45.8334 49.9999 45.8334H24.9999L8.33325 62.5V16.6667C8.33325 14.4566 9.21123 12.337 10.774 10.7742C12.3368 9.21135 14.4564 8.33337 16.6666 8.33337H49.9999C52.2101 8.33337 54.3297 9.21135 55.8925 10.7742C57.4553 12.337 58.3333 14.4566 58.3333 16.6667V37.5Z" stroke="black" stroke-width="2" stroke-linecap="round" stroke-linejoin="round"/>
<path d="M75.0001 37.5H83.3334C85.5436 37.5 87.6632 38.378 89.226 39.9408C90.7888 41.5036 91.6667 43.6232 91.6667 45.8333V91.6667L75.0001 75H50.0001C47.7899 75 45.6703 74.122 44.1075 72.5592C42.5447 70.9964 41.6667 68.8768 41.6667 66.6667V62.5" stroke="black" stroke-width="2" stroke-linecap="round" stroke-linejoin="round"/>
</svg>
