<svg width="100" height="100" viewBox="0 0 100 100" fill="none" xmlns="http://www.w3.org/2000/svg">
<path d="M50 91.6666V54.1666" stroke="black" stroke-width="2" stroke-linecap="round" stroke-linejoin="round"/>
<path d="M63.2084 9.20838C64.2462 8.62814 65.4153 8.32349 66.6042 8.32349C67.7932 8.32349 68.9623 8.62814 70.0001 9.20838L87.5001 19.0417C88.7395 19.7426 89.7705 20.7599 90.488 21.9897C91.2054 23.2196 91.5834 24.6179 91.5834 26.0417C91.5834 27.4655 91.2054 28.8638 90.488 30.0937C89.7705 31.3235 88.7395 32.3409 87.5001 33.0417L36.7501 61.625C35.7092 62.2187 34.5317 62.531 33.3334 62.531C32.1352 62.531 30.9576 62.2187 29.9167 61.625L12.5001 51.7917C11.2607 51.0909 10.2296 50.0735 9.51219 48.8437C8.79477 47.6138 8.41675 46.2155 8.41675 44.7917C8.41675 43.3679 8.79477 41.9696 9.51219 40.7397C10.2296 39.5099 11.2607 38.4925 12.5001 37.7917L63.2084 9.20838Z" stroke="black" stroke-width="2" stroke-linecap="round" stroke-linejoin="round"/>
<path d="M83.3334 54.1666V70.2916C83.335 71.8643 82.9045 73.4073 82.0889 74.7519C81.2733 76.0966 80.1039 77.1914 78.7084 77.9166L53.7084 90.75C52.563 91.3453 51.291 91.656 50.0001 91.656C48.7092 91.656 47.4372 91.3453 46.2917 90.75L21.2918 77.9166C19.8963 77.1914 18.7269 76.0966 17.9112 74.7519C17.0956 73.4073 16.6651 71.8643 16.6668 70.2916V54.1666" stroke="black" stroke-width="2" stroke-linecap="round" stroke-linejoin="round"/>
<path d="M87.5001 51.7917C88.7395 51.0909 89.7705 50.0735 90.488 48.8437C91.2054 47.6138 91.5834 46.2155 91.5834 44.7917C91.5834 43.3679 91.2054 41.9696 90.488 40.7397C89.7705 39.5099 88.7395 38.4925 87.5001 37.7917L36.7917 9.1667C35.7579 8.57465 34.5873 8.26318 33.3959 8.26318C32.2046 8.26318 31.0339 8.57465 30.0001 9.1667L12.5001 19.0417C11.2607 19.7425 10.2296 20.7599 9.51219 21.9897C8.79477 23.2196 8.41675 24.6179 8.41675 26.0417C8.41675 27.4655 8.79477 28.8638 9.51219 30.0937C10.2296 31.3235 11.2607 32.3409 12.5001 33.0417L63.2501 61.625C64.2834 62.2187 65.4542 62.5311 66.6459 62.5311C67.8376 62.5311 69.0085 62.2187 70.0417 61.625L87.5001 51.7917Z" stroke="black" stroke-width="2" stroke-linecap="round" stroke-linejoin="round"/>
</svg>
