<svg width="40" height="40" viewBox="0 0 40 40" fill="none" xmlns="http://www.w3.org/2000/svg">
<path d="M11.9549 29.025C12.5656 29.8279 13.4126 30.4193 14.3767 30.7161C15.3409 31.0129 16.3738 31.0001 17.3303 30.6795C18.2868 30.359 19.1189 29.7467 19.7095 28.9289C20.3001 28.1111 20.6197 27.1288 20.6232 26.12V3.33333H26.3649V4.06833C26.5218 5.76318 27.216 7.36359 28.3463 8.63626C29.4766 9.90892 30.9838 10.7873 32.6482 11.1433C33.1979 11.2593 33.7581 11.3174 34.3199 11.3167V17.0217C31.4675 17.0267 28.6853 16.1372 26.3649 14.4783V26.1217C26.3648 28.2185 25.7398 30.2677 24.5698 32.0078C23.3998 33.7479 21.7378 35.0998 19.796 35.8911C17.8542 36.6823 15.7206 36.877 13.6677 36.4502C11.6147 36.0234 9.73549 34.9946 8.26989 33.495C6.73305 31.9218 5.72639 29.9075 5.3907 27.734C5.05501 25.5605 5.40709 23.3364 6.39769 21.3728C7.38829 19.4092 8.96787 17.8044 10.9155 16.7828C12.8631 15.7612 15.0813 15.3738 17.2599 15.675V21.5083C16.2829 21.1975 15.2323 21.2059 14.2605 21.5324C13.2886 21.8588 12.446 22.4864 11.8548 23.324C11.2637 24.1616 10.9547 25.1658 10.9727 26.1909C10.9907 27.2159 11.3347 28.2086 11.9549 29.025ZM11.9549 29.025L11.9516 29.0233" stroke="black" stroke-width="2"/>
</svg>
